<?xml version="1.0" encoding="UTF-8" standalone="no"?>
<!-- Created with Inkscape (http://www.inkscape.org/) -->

<svg
   xmlns:dc="http://purl.org/dc/elements/1.1/"
   xmlns:cc="http://creativecommons.org/ns#"
   xmlns:rdf="http://www.w3.org/1999/02/22-rdf-syntax-ns#"
   xmlns:svg="http://www.w3.org/2000/svg"
   xmlns="http://www.w3.org/2000/svg"
   xmlns:sodipodi="http://sodipodi.sourceforge.net/DTD/sodipodi-0.dtd"
   xmlns:inkscape="http://www.inkscape.org/namespaces/inkscape"
   width="15.996094"
   height="14.003906"
   viewBox="0 0 4.2322997 3.7052003"
   version="1.1"
   id="svg8"
   inkscape:version="0.92.1 r15371"
   sodipodi:docname="bot.svg">
  <defs
     id="defs2" />
  <sodipodi:namedview
     id="base"
     pagecolor="#ffffff"
     bordercolor="#666666"
     borderopacity="1.0"
     inkscape:pageopacity="0.0"
     inkscape:pageshadow="2"
     inkscape:zoom="31.678384"
     inkscape:cx="5.0143282"
     inkscape:cy="9.9754528"
     inkscape:document-units="mm"
     inkscape:current-layer="layer1"
     showgrid="true"
     units="px"
     inkscape:pagecheckerboard="true"
     inkscape:window-width="2560"
     inkscape:window-height="1354"
     inkscape:window-x="0"
     inkscape:window-y="56"
     inkscape:window-maximized="1"
     inkscape:snap-global="true"
     inkscape:object-paths="true"
     inkscape:snap-nodes="true"
     inkscape:snap-bbox="true"
     inkscape:bbox-nodes="true">
    <inkscape:grid
       type="xygrid"
       id="grid4485"
       empspacing="4"
       originx="2.0453527e-32"
       originy="-0.26354993" />
  </sodipodi:namedview>
  <metadata
     id="metadata5">
    <rdf:RDF>
      <cc:Work
         rdf:about="">
        <dc:format>image/svg+xml</dc:format>
        <dc:type
           rdf:resource="http://purl.org/dc/dcmitype/StillImage" />
        <dc:title></dc:title>
      </cc:Work>
    </rdf:RDF>
  </metadata>
  <g
     inkscape:label="Layer 1"
     inkscape:groupmode="layer"
     id="layer1"
     transform="translate(0,-293.03123)">
    <path
       style="color:#000000;font-style:normal;font-variant:normal;font-weight:normal;font-stretch:normal;font-size:medium;line-height:normal;font-family:sans-serif;font-variant-ligatures:normal;font-variant-position:normal;font-variant-caps:normal;font-variant-numeric:normal;font-variant-alternates:normal;font-feature-settings:normal;text-indent:0;text-align:start;text-decoration:none;text-decoration-line:none;text-decoration-style:solid;text-decoration-color:#000000;letter-spacing:normal;word-spacing:normal;text-transform:none;writing-mode:lr-tb;direction:ltr;text-orientation:mixed;dominant-baseline:auto;baseline-shift:baseline;text-anchor:start;white-space:normal;shape-padding:0;clip-rule:nonzero;display:inline;overflow:visible;visibility:visible;opacity:1;isolation:auto;mix-blend-mode:normal;color-interpolation:sRGB;color-interpolation-filters:linearRGB;solid-color:#000000;solid-opacity:1;vector-effect:none;fill:#242424;fill-opacity:1;fill-rule:nonzero;stroke:none;stroke-width:1.50000012;stroke-linecap:round;stroke-linejoin:miter;stroke-miterlimit:4;stroke-dasharray:none;stroke-dashoffset:0;stroke-opacity:1;paint-order:stroke fill markers;color-rendering:auto;image-rendering:auto;shape-rendering:auto;text-rendering:auto;enable-background:accumulate"
       d="M 8,1 A 1.5,1.5 0 0 0 6.5,2.5 1.5,1.5 0 0 0 7.5371094,3.9257812 L 7,5 H 9 L 8.4628906,3.9257812 A 1.5,1.5 0 0 0 9.5,2.5 1.5,1.5 0 0 0 8,1 Z M 1.75,5.0019531 C 0.7934515,5.0019531 0,5.7934772 0,6.75 v 6.496094 c 0,0.95656 0.79348563,1.757812 1.75,1.757812 h 12.496094 c 0.956514,0 1.75,-0.801252 1.75,-1.757812 V 6.75 c 0,-0.9565228 -0.793452,-1.7480469 -1.75,-1.7480469 z M 1.75,6.5 h 12.496094 c 0.151464,0 0.251953,0.098441 0.251953,0.25 v 6.496094 c 0,0.151559 -0.100458,0.251953 -0.251953,0.251953 H 1.75 c -0.1514967,0 -0.2519531,-0.100394 -0.2519531,-0.251953 V 6.75 C 1.4980469,6.5984409 1.5985377,6.5 1.75,6.5 Z M 5,8 A 1.9999999,1.9999999 0 0 0 3,10 1.9999999,1.9999999 0 0 0 5,12 1.9999999,1.9999999 0 0 0 7,10 1.9999999,1.9999999 0 0 0 5,8 Z m 6,0 a 1.9999999,1.9999999 0 0 0 -2,2 1.9999999,1.9999999 0 0 0 2,2 1.9999999,1.9999999 0 0 0 2,-2 1.9999999,1.9999999 0 0 0 -2,-2 z"
       id="rect4608"
       transform="matrix(0.26458333,0,0,0.26458333,0,292.76665)"
       inkscape:connector-curvature="0" />
  </g>
</svg>
