<?xml version="1.0" encoding="UTF-8" standalone="no"?>
<!-- Created with Inkscape (http://www.inkscape.org/) -->

<svg
   xmlns:dc="http://purl.org/dc/elements/1.1/"
   xmlns:cc="http://creativecommons.org/ns#"
   xmlns:rdf="http://www.w3.org/1999/02/22-rdf-syntax-ns#"
   xmlns:svg="http://www.w3.org/2000/svg"
   xmlns="http://www.w3.org/2000/svg"
   xmlns:sodipodi="http://sodipodi.sourceforge.net/DTD/sodipodi-0.dtd"
   xmlns:inkscape="http://www.inkscape.org/namespaces/inkscape"
   width="16"
   height="16"
   viewBox="0 0 4.233333 4.2333335"
   version="1.1"
   id="svg8"
   inkscape:version="0.92.1 r15371"
   sodipodi:docname="versioncontrol.svg"
   inkscape:export-filename="/home/db/Projects/Crypto/CryptoBotUI/ClientApp/src/assets/ui/tune.png"
   inkscape:export-xdpi="96.000008"
   inkscape:export-ydpi="96.000008">
  <defs
     id="defs2">
    <inkscape:path-effect
       effect="skeletal"
       id="path-effect5133"
       is_visible="true"
       pattern="#path4492-7"
       copytype="single_stretched"
       prop_scale="1000000"
       scale_y_rel="false"
       spacing="0"
       normal_offset="0"
       tang_offset="0"
       prop_units="false"
       vertical_pattern="false"
       fuse_tolerance="0" />
    <inkscape:path-effect
       effect="skeletal"
       id="path-effect5129"
       is_visible="true"
       pattern="M 0,0 H 1"
       copytype="single_stretched"
       prop_scale="1"
       scale_y_rel="false"
       spacing="0"
       normal_offset="0"
       tang_offset="0"
       prop_units="false"
       vertical_pattern="false"
       fuse_tolerance="0" />
  </defs>
  <sodipodi:namedview
     id="base"
     pagecolor="#ffffff"
     bordercolor="#666666"
     borderopacity="1.0"
     inkscape:pageopacity="0.0"
     inkscape:pageshadow="2"
     inkscape:zoom="44.8"
     inkscape:cx="4.8249358"
     inkscape:cy="8.2823197"
     inkscape:document-units="mm"
     inkscape:current-layer="layer1"
     showgrid="true"
     units="px"
     inkscape:pagecheckerboard="true"
     inkscape:window-width="2560"
     inkscape:window-height="1354"
     inkscape:window-x="0"
     inkscape:window-y="56"
     inkscape:window-maximized="1"
     inkscape:snap-global="false"
     inkscape:snap-nodes="true"
     inkscape:snap-bbox="true"
     inkscape:bbox-nodes="true"
     showguides="false"
     fit-margin-top="0"
     fit-margin-left="0"
     fit-margin-right="0"
     fit-margin-bottom="0"
     inkscape:snap-bbox-edge-midpoints="false"
     inkscape:measure-start="8,16"
     inkscape:measure-end="0,8">
    <inkscape:grid
       type="xygrid"
       id="grid4485"
       empspacing="4"
       originx="0"
       originy="0" />
  </sodipodi:namedview>
  <metadata
     id="metadata5">
    <rdf:RDF>
      <cc:Work
         rdf:about="">
        <dc:format>image/svg+xml</dc:format>
        <dc:type
           rdf:resource="http://purl.org/dc/dcmitype/StillImage" />
        <dc:title></dc:title>
      </cc:Work>
    </rdf:RDF>
  </metadata>
  <g
     inkscape:label="Layer 1"
     inkscape:groupmode="layer"
     id="layer1"
     transform="translate(-3.0901403e-6,-292.50208)">
    <path
       style="opacity:1;fill:#cccccc;fill-opacity:1;stroke:none;stroke-width:0.79374993;stroke-linecap:butt;stroke-linejoin:round;stroke-miterlimit:4;stroke-dasharray:none;stroke-opacity:1;paint-order:stroke fill markers"
       d="m 2.1166698,292.50265 c -0.1102572,0 -0.2204062,0.0423 -0.304891,0.12661 l -1.68826902,1.68517 c -0.16896958,0.16867 -0.16896939,0.44008 0,0.60875 l 1.68826902,1.68517 c 0.1689694,0.16866 0.4408123,0.16866 0.6097819,0 l 1.6882689,-1.68517 c 0.1689698,-0.16867 0.1689695,-0.44008 0,-0.60875 l -1.6882689,-1.68517 c -0.084485,-0.0843 -0.1946338,-0.12661 -0.3048909,-0.12661 z m -0.3741374,0.19637 1.488798,1.4888 a 0.46302083,0.46302083 0 0 1 0.4087606,0.12816 0.46302083,0.46302083 0 0 1 0,0.65474 0.46302083,0.46302083 0 0 1 -0.6547404,0 0.46302083,0.46302083 0 0 1 -0.1281576,-0.40824 l -0.5105631,-0.51057 v 1.27744 a 0.46302083,0.46302318 0 0 1 0.1984375,0.37931 0.46302083,0.46302318 0 0 1 -0.4630208,0.46302 0.46302083,0.46302318 0 0 1 -0.4630209,-0.46302 0.46302083,0.46302318 0 0 1 0.1984375,-0.37931 v -1.80712 L 1.368395,293.07316 Z"
       id="rect5604"
       inkscape:connector-curvature="0" />
  </g>
</svg>
