<?xml version="1.0" encoding="UTF-8" standalone="no"?>
<!-- Created with Inkscape (http://www.inkscape.org/) -->

<svg
   xmlns:dc="http://purl.org/dc/elements/1.1/"
   xmlns:cc="http://creativecommons.org/ns#"
   xmlns:rdf="http://www.w3.org/1999/02/22-rdf-syntax-ns#"
   xmlns:svg="http://www.w3.org/2000/svg"
   xmlns="http://www.w3.org/2000/svg"
   xmlns:sodipodi="http://sodipodi.sourceforge.net/DTD/sodipodi-0.dtd"
   xmlns:inkscape="http://www.inkscape.org/namespaces/inkscape"
   width="16"
   height="16"
   viewBox="0 0 4.2333332 4.2333335"
   version="1.1"
   id="svg8"
   inkscape:version="0.92.1 r15371"
   sodipodi:docname="chart.svg">
  <defs
     id="defs2" />
  <sodipodi:namedview
     id="base"
     pagecolor="#ffffff"
     bordercolor="#666666"
     borderopacity="1.0"
     inkscape:pageopacity="0.0"
     inkscape:pageshadow="2"
     inkscape:zoom="31.678384"
     inkscape:cx="8.4122128"
     inkscape:cy="8.4723679"
     inkscape:document-units="mm"
     inkscape:current-layer="layer1"
     showgrid="true"
     units="px"
     inkscape:pagecheckerboard="true"
     inkscape:window-width="2560"
     inkscape:window-height="1354"
     inkscape:window-x="0"
     inkscape:window-y="56"
     inkscape:window-maximized="1"
     inkscape:snap-bbox="true"
     inkscape:bbox-nodes="true"
     inkscape:bbox-paths="false"
     inkscape:snap-bbox-edge-midpoints="true">
    <inkscape:grid
       type="xygrid"
       id="grid4485"
       empspacing="4" />
  </sodipodi:namedview>
  <metadata
     id="metadata5">
    <rdf:RDF>
      <cc:Work
         rdf:about="">
        <dc:format>image/svg+xml</dc:format>
        <dc:type
           rdf:resource="http://purl.org/dc/dcmitype/StillImage" />
        <dc:title />
      </cc:Work>
    </rdf:RDF>
  </metadata>
  <g
     inkscape:label="Layer 1"
     inkscape:groupmode="layer"
     id="layer1"
     transform="translate(0,-292.76665)">
    <path
       style="opacity:1;fill:#787878;fill-opacity:1;stroke:none;stroke-width:0.99999994;stroke-linecap:round;stroke-linejoin:round;stroke-miterlimit:4;stroke-dasharray:none;stroke-opacity:1;paint-order:fill markers stroke"
       d="M 3 0 C 1.3380005 -2.2737368e-13 -2.9605947e-16 1.3380283 0 3 L 0 13 C 1.4036373e-16 13.393976 0.079928621 13.767272 0.21679688 14.111328 L 2.7382812 7.8125 A 0.50004997 0.50004997 0 0 1 3.6171875 7.7246094 L 6.2675781 11.695312 L 9.1308594 3.828125 A 0.50004997 0.50004997 0 0 1 10.017578 3.7246094 L 12.667969 7.6953125 L 15.140625 0.8984375 C 14.596923 0.34458088 13.841039 -7.4014868e-17 13 0 L 3 0 z M 15.8125 1.9824219 L 13.273438 8.9726562 A 0.50004997 0.50004997 0 0 1 12.386719 9.0761719 L 9.7285156 5.0976562 L 6.8730469 12.974609 A 0.50004997 0.50004997 0 0 1 5.9863281 13.076172 L 3.3066406 9.0683594 L 0.88476562 15.130859 C 1.4263964 15.668526 2.1729776 16 3 16 L 13 16 C 14.661999 16 16 14.661972 16 13 L 16 3 C 16 2.6405729 15.927402 2.3012867 15.8125 1.9824219 z M 4 2.5 L 6 4 L 4 5.5 L 4 4.4960938 L 2 4.4960938 L 2 3.5 L 4 3.5 L 4 2.5 z M 12 11.5 L 12 12.5 L 14 12.5 L 14 13.496094 L 12 13.496094 L 12 14.5 L 10 13 L 12 11.5 z "
       transform="matrix(0.26458333,0,0,0.26458333,0,292.76665)"
       id="rect7247" />
  </g>
</svg>
