<?xml version="1.0" encoding="UTF-8" standalone="no"?>
<!-- Created with Inkscape (http://www.inkscape.org/) -->

<svg
   xmlns:dc="http://purl.org/dc/elements/1.1/"
   xmlns:cc="http://creativecommons.org/ns#"
   xmlns:rdf="http://www.w3.org/1999/02/22-rdf-syntax-ns#"
   xmlns:svg="http://www.w3.org/2000/svg"
   xmlns="http://www.w3.org/2000/svg"
   xmlns:sodipodi="http://sodipodi.sourceforge.net/DTD/sodipodi-0.dtd"
   xmlns:inkscape="http://www.inkscape.org/namespaces/inkscape"
   width="16"
   height="16"
   viewBox="0 0 4.2333332 4.2333335"
   version="1.1"
   id="svg8"
   inkscape:version="0.92.1 r15371"
   sodipodi:docname="code.svg">
  <defs
     id="defs2" />
  <sodipodi:namedview
     id="base"
     pagecolor="#ffffff"
     bordercolor="#666666"
     borderopacity="1.0"
     inkscape:pageopacity="0.0"
     inkscape:pageshadow="2"
     inkscape:zoom="22.4"
     inkscape:cx="5.7280464"
     inkscape:cy="1.9847077"
     inkscape:document-units="mm"
     inkscape:current-layer="layer1"
     showgrid="true"
     units="px"
     inkscape:pagecheckerboard="true"
     inkscape:window-width="2560"
     inkscape:window-height="1354"
     inkscape:window-x="0"
     inkscape:window-y="56"
     inkscape:window-maximized="1">
    <inkscape:grid
       type="xygrid"
       id="grid4485"
       empspacing="4" />
  </sodipodi:namedview>
  <metadata
     id="metadata5">
    <rdf:RDF>
      <cc:Work
         rdf:about="">
        <dc:format>image/svg+xml</dc:format>
        <dc:type
           rdf:resource="http://purl.org/dc/dcmitype/StillImage" />
        <dc:title />
      </cc:Work>
    </rdf:RDF>
  </metadata>
  <g
     inkscape:label="Layer 1"
     inkscape:groupmode="layer"
     id="layer1"
     transform="translate(0,-292.76665)">
    <path
       style="opacity:1;fill:#787878;fill-opacity:1;stroke:none;stroke-width:1.29999995;stroke-linecap:round;stroke-linejoin:round;stroke-miterlimit:4;stroke-dasharray:none;stroke-opacity:1;paint-order:stroke fill markers"
       d="M 2 0 C 0.8920264 0 0 0.8920264 0 2 L 0 14 C -1.4802974e-16 15.107974 0.8920264 16 2 16 L 14 16 C 15.107974 16 16 15.107974 16 14 L 16 2 C 16 0.8920264 15.107974 0 14 0 L 2 0 z M 5.8691406 2.3964844 C 6.1918087 2.3964844 6.4101562 2.616876 6.4101562 2.96875 C 6.4101562 3.510961 5.9995156 3.4540209 5.6035156 3.5273438 C 4.870183 3.6593248 4.796875 4.0985927 4.796875 4.9199219 L 4.796875 5.59375 C 4.796875 6.9577437 4.592188 7.6772283 3.4921875 8 C 4.5921869 8.3373228 4.796875 9.0705926 4.796875 10.419922 L 4.796875 11.09375 C 4.796875 11.915079 4.8409582 12.281974 5.515625 12.443359 C 5.911625 12.546011 6.4101562 12.444592 6.4101562 13.03125 C 6.4101563 13.398015 6.2055887 13.603516 5.7949219 13.603516 C 3.9469204 13.603516 3.5957031 12.620509 3.5957031 10.728516 L 3.5957031 10.273438 C 3.5957031 8.8505961 3.1261667 8.7473233 2.1875 8.5859375 C 1.7915 8.5126147 1.6582031 8.351874 1.6582031 8 C 1.6582031 7.6773039 1.8062761 7.5303541 2.0996094 7.4570312 C 2.9649427 7.2370251 3.5957031 7.3555166 3.5957031 5.7421875 L 3.5957031 5.2871094 C 3.5957031 3.3657487 3.9331408 2.3964844 5.8691406 2.3964844 z M 10.130859 2.3964844 C 12.066859 2.3964844 12.404297 3.3657487 12.404297 5.2871094 L 12.404297 5.7421875 C 12.404297 7.3554032 13.035058 7.2370627 13.900391 7.4570312 C 14.193722 7.5303541 14.341797 7.6772283 14.341797 8 C 14.341797 8.3519496 14.2085 8.5126147 13.8125 8.5859375 C 12.873833 8.7472855 12.404297 8.8507855 12.404297 10.273438 L 12.404297 10.728516 C 12.404297 12.620509 12.06675 13.603516 10.21875 13.603516 C 9.808082 13.603516 9.5898438 13.397864 9.5898438 13.03125 C 9.5898437 12.503099 9.9858179 12.532307 10.396484 12.458984 C 11.144485 12.326965 11.203125 11.929744 11.203125 11.09375 L 11.203125 10.419922 C 11.203125 9.0705927 11.407813 8.3375118 12.507812 8 C 11.407814 7.6773417 11.203125 6.9577437 11.203125 5.59375 L 11.203125 4.9199219 C 11.203125 4.1132573 11.159041 3.7327666 10.484375 3.5566406 C 10.103041 3.4539887 9.5898438 3.5554083 9.5898438 2.96875 C 9.5898437 2.6167248 9.8081935 2.3964844 10.130859 2.3964844 z "
       transform="matrix(0.26458333,0,0,0.26458333,0,292.76665)"
       id="rect4483" />
    <text
       xml:space="preserve"
       style="font-style:normal;font-weight:normal;font-size:10.58333302px;line-height:1.25;font-family:sans-serif;letter-spacing:0px;word-spacing:0px;fill:#000000;fill-opacity:1;stroke:none;stroke-width:0.26458332"
       x="1.8520833"
       y="294.61874"
       id="text4496"><tspan
         sodipodi:role="line"
         id="tspan4494"
         x="1.8520833"
         y="303.98251"
         style="stroke-width:0.26458332" /></text>
    <g
       aria-label="{}"
       style="font-style:normal;font-weight:normal;font-size:10.58333302px;line-height:1.25;font-family:sans-serif;letter-spacing:0px;word-spacing:0px;fill:#000000;fill-opacity:1;stroke:none;stroke-width:0.26458332"
       id="text4504"
       transform="translate(-0.1123855,-0.37860333)" />
  </g>
</svg>
