<?xml version="1.0" encoding="UTF-8" standalone="no"?>
<!-- Created with Inkscape (http://www.inkscape.org/) -->

<svg
   xmlns:dc="http://purl.org/dc/elements/1.1/"
   xmlns:cc="http://creativecommons.org/ns#"
   xmlns:rdf="http://www.w3.org/1999/02/22-rdf-syntax-ns#"
   xmlns:svg="http://www.w3.org/2000/svg"
   xmlns="http://www.w3.org/2000/svg"
   xmlns:sodipodi="http://sodipodi.sourceforge.net/DTD/sodipodi-0.dtd"
   xmlns:inkscape="http://www.inkscape.org/namespaces/inkscape"
   width="16"
   height="16"
   viewBox="0 0 4.2333332 4.2333335"
   version="1.1"
   id="svg8"
   inkscape:version="0.92.1 r15371"
   sodipodi:docname="db.svg">
  <defs
     id="defs2" />
  <sodipodi:namedview
     id="base"
     pagecolor="#ffffff"
     bordercolor="#666666"
     borderopacity="1.0"
     inkscape:pageopacity="0.0"
     inkscape:pageshadow="2"
     inkscape:zoom="44.8"
     inkscape:cx="0.44653111"
     inkscape:cy="9.0911257"
     inkscape:document-units="mm"
     inkscape:current-layer="layer1"
     showgrid="true"
     units="px"
     inkscape:pagecheckerboard="true"
     inkscape:window-width="2560"
     inkscape:window-height="1354"
     inkscape:window-x="0"
     inkscape:window-y="56"
     inkscape:window-maximized="1"
     inkscape:snap-bbox="true"
     inkscape:bbox-nodes="false"
     inkscape:snap-nodes="false"
     inkscape:snap-bbox-edge-midpoints="true">
    <inkscape:grid
       type="xygrid"
       id="grid4485"
       empspacing="4" />
  </sodipodi:namedview>
  <metadata
     id="metadata5">
    <rdf:RDF>
      <cc:Work
         rdf:about="">
        <dc:format>image/svg+xml</dc:format>
        <dc:type
           rdf:resource="http://purl.org/dc/dcmitype/StillImage" />
        <dc:title />
      </cc:Work>
    </rdf:RDF>
  </metadata>
  <g
     inkscape:label="Layer 1"
     inkscape:groupmode="layer"
     id="layer1"
     transform="translate(0,-292.76665)">
    <path
       style="fill:#787878;fill-opacity:1;stroke:none;stroke-width:0.99999994px;stroke-linecap:butt;stroke-linejoin:miter;stroke-opacity:1"
       d="M 8 0 C 2.519685e-07 0 0 3 0 3 C 0 3 -0.0086635281 3.0480476 0.087890625 3.2519531 C 0.18444365 3.4558586 0.38798565 3.7637972 0.85546875 4.09375 C 1.790435 4.7534287 3.8133602 5.504322 8.0019531 5.5039062 C 12.187713 5.5034528 14.212554 4.7534287 15.148438 4.09375 C 15.61638 3.7639106 15.819075 3.4560476 15.916016 3.2519531 C 16.012938 3.0478586 15.996094 3 15.996094 3 A 0.50196849 0.50196849 0 0 1 15.996094 2.9746094 C 15.991327 2.8335469 15.802263 0 8 0 z M 16 4.6835938 C 15.912087 4.7575514 15.82619 4.831321 15.722656 4.9042969 C 14.53086 5.7443725 12.305472 6.4995465 8.0019531 6.5 C 3.6956074 6.5004535 1.4647365 5.7526385 0.2734375 4.9121094 C 0.17108199 4.8398885 0.087116253 4.7649372 0 4.6914062 L 0 6.5 C 0 6.5 -0.0086635281 6.553907 0.087890625 6.7578125 C 0.18444365 6.961718 0.38798565 7.2618441 0.85546875 7.5917969 C 1.790435 8.2514756 3.8133598 9.0024067 8.0019531 9.0019531 C 12.187713 9.0014996 14.212554 8.2514756 15.148438 7.5917969 C 15.61638 7.2619575 15.819075 6.9540945 15.916016 6.75 C 16.012938 6.5459055 15.996094 6.5 15.996094 6.5 A 0.50196849 0.50196849 0 0 1 16 6.4375 L 16 4.6835938 z M 16 8.1914062 C 15.912087 8.2654639 15.82619 8.339127 15.722656 8.4121094 C 14.53086 9.252185 12.305472 9.9975933 8.0019531 9.9980469 C 3.6956073 9.9985004 1.4647365 9.2526385 0.2734375 8.4121094 C 0.17119388 8.3399674 0.087037058 8.2665232 0 8.1933594 L 0 9.921875 A 0.50004997 0.50004997 0 0 1 0 9.9980469 C 0 9.9980469 -0.0086639061 10.053757 0.087890625 10.257812 C 0.18444365 10.461718 0.38798565 10.761844 0.85546875 11.091797 C 1.790435 11.751476 3.8133602 12.502407 8.0019531 12.501953 C 12.187713 12.5015 14.212554 11.751513 15.148438 11.091797 C 15.61638 10.761958 15.819075 10.461907 15.916016 10.257812 C 16.012938 10.053719 15.996094 9.9980469 15.996094 9.9980469 A 0.50004997 0.50004997 0 0 1 16 9.9257812 L 16 8.1914062 z M 16 11.689453 C 15.912087 11.763413 15.82619 11.837174 15.722656 11.910156 C 14.53086 12.750232 12.305472 13.497593 8.0019531 13.498047 C 3.6956073 13.4985 1.4647365 12.750685 0.2734375 11.910156 C 0.17119388 11.838014 0.087037058 11.764475 0 11.691406 L 0 13 C -1.1842379e-15 13 2.519685e-07 16 8 16 C 16 16 16 13 16 13 L 16 11.689453 z "
       transform="matrix(0.26458333,0,0,0.26458333,0,292.76665)"
       id="path7832" />
  </g>
</svg>
