<?xml version="1.0" encoding="UTF-8" standalone="no"?>
<!-- Created with Inkscape (http://www.inkscape.org/) -->

<svg
   xmlns:dc="http://purl.org/dc/elements/1.1/"
   xmlns:cc="http://creativecommons.org/ns#"
   xmlns:rdf="http://www.w3.org/1999/02/22-rdf-syntax-ns#"
   xmlns:svg="http://www.w3.org/2000/svg"
   xmlns="http://www.w3.org/2000/svg"
   xmlns:sodipodi="http://sodipodi.sourceforge.net/DTD/sodipodi-0.dtd"
   xmlns:inkscape="http://www.inkscape.org/namespaces/inkscape"
   width="16"
   height="16"
   viewBox="0 0 4.2333332 4.2333335"
   version="1.1"
   id="svg8"
   inkscape:version="0.92.1 r15371"
   sodipodi:docname="wallet.svg">
  <defs
     id="defs2" />
  <sodipodi:namedview
     id="base"
     pagecolor="#ffffff"
     bordercolor="#666666"
     borderopacity="1.0"
     inkscape:pageopacity="0.0"
     inkscape:pageshadow="2"
     inkscape:zoom="22.4"
     inkscape:cx="0.27180782"
     inkscape:cy="12.884902"
     inkscape:document-units="mm"
     inkscape:current-layer="layer1"
     showgrid="true"
     units="px"
     inkscape:pagecheckerboard="true"
     inkscape:window-width="2560"
     inkscape:window-height="1354"
     inkscape:window-x="0"
     inkscape:window-y="56"
     inkscape:window-maximized="1"
     inkscape:snap-bbox="true"
     inkscape:bbox-nodes="true"
     showguides="false"
     inkscape:snap-nodes="true">
    <inkscape:grid
       type="xygrid"
       id="grid4485"
       empspacing="4" />
  </sodipodi:namedview>
  <metadata
     id="metadata5">
    <rdf:RDF>
      <cc:Work
         rdf:about="">
        <dc:format>image/svg+xml</dc:format>
        <dc:type
           rdf:resource="http://purl.org/dc/dcmitype/StillImage" />
        <dc:title />
      </cc:Work>
    </rdf:RDF>
  </metadata>
  <g
     inkscape:label="Layer 1"
     inkscape:groupmode="layer"
     id="layer1"
     transform="translate(0,-292.76665)">
    <path
       style="opacity:1;fill:#787878;fill-opacity:1;stroke:none;stroke-width:0.99999994;stroke-linecap:round;stroke-linejoin:round;stroke-miterlimit:4;stroke-dasharray:none;stroke-opacity:1;paint-order:fill markers stroke"
       d="M 2 2 C 0.89198899 2 0 2.8919937 0 4 L 0 12 C -2.9605947e-16 13.108044 0.89198899 14 2 14 L 12.498047 14 L 12.498047 11.498047 L 10.001953 11.498047 C 10.001953 11.498047 9.1446476 11.503005 8.2753906 11.068359 C 7.4061337 10.633752 6.5039062 9.6647051 6.5039062 7.9980469 C 6.5039063 6.3313886 7.4061337 5.36238 8.2753906 4.9277344 C 9.1446476 4.4920304 10.001953 4.5 10.001953 4.5 L 12.498047 4.5 L 12.498047 2 L 2 2 z M 13.501953 2 L 13.501953 5.5039062 L 10.001953 5.5039062 C 10.001953 5.5039062 9.3553521 5.5050999 8.7246094 5.8203125 C 8.0938663 6.1356763 7.5 6.6647051 7.5 7.9980469 C 7.5 9.3313886 8.0938663 9.860569 8.7246094 10.175781 C 9.3553521 10.492884 10.001953 10.5 10.001953 10.5 L 13.501953 10.5 L 13.501953 14 L 14 14 C 15.108011 14 16 13.108044 16 12 L 16 4 C 16 2.8919937 15.108011 2 14 2 L 13.501953 2 z M 10 7 A 1.0000001 0.99997382 0 0 1 11 8 A 1.0000001 0.99997382 0 0 1 10 9 A 1.0000001 0.99997382 0 0 1 9 8 A 1.0000001 0.99997382 0 0 1 10 7 z "
       transform="matrix(0.26458333,0,0,0.26458333,0,292.76665)"
       id="rect6670" />
  </g>
</svg>
